<svg id="Layer_35" enable-background="new 0 0 64 64" height="512" viewBox="0 0 64 64" width="512" xmlns="http://www.w3.org/2000/svg"><g fill="#a0d468"><path d="m24 52v-4c0 2.21 4.03 4 9 4s9-1.79 9-4v10c0 2.21-4.03 4-9 4s-9-1.79-9-4z"/><path d="m24 52v6c0 2.21-4.03 4-9 4s-9-1.79-9-4v-6c0 2.21 4.03 4 9 4s9-1.79 9-4z"/><path d="m60 32v26c0 2.21-4.03 4-9 4s-9-1.79-9-4v-10-16c0 2.21 4.03 4 9 4s9-1.79 9-4z"/></g><path d="m54.46 28.31c3.25.6 5.54 2.03 5.54 3.69 0 2.21-4.03 4-9 4s-9-1.79-9-4c0-1.66 2.27-3.08 5.5-3.69l.03-.02 1.92 2.88c.34.52.93.83 1.55.83s1.21-.31 1.55-.83z" fill="#ffeaa7"/><path d="m36 44.23c3.5.55 6 2.03 6 3.77 0 2.21-4.03 4-9 4s-9-1.79-9-4c0-1.74 2.5-3.22 6-3.77v.77c0 1.66 1.34 3 3 3 .83 0 1.58-.34 2.12-.88s.88-1.29.88-2.12z" fill="#ffeaa7"/><path d="m12 49.11c0 1.6 1.29 2.89 2.89 2.89 1.25 0 2.37-.82 2.75-2.02l.54-1.72c3.4.57 5.82 2.03 5.82 3.74 0 2.21-4.03 4-9 4s-9-1.79-9-4c0-1.74 2.51-3.22 6.01-3.77-.01.06-.01.11-.01.17z" fill="#ffeaa7"/><path d="m36 44.23v.77c0 .83-.34 1.58-.88 2.12s-1.29.88-2.12.88c-1.66 0-3-1.34-3-3v-.77-4.94c0-.27-.11-.52-.3-.71l-5.7-5.58h-1l-4.82 15.26-.54 1.72c-.38 1.2-1.5 2.02-2.75 2.02-1.6 0-2.89-1.29-2.89-2.89v-.71c0-.06 0-.11.01-.17.01-.2.04-.42.1-.62l3.89-13.61v-6h6 6l6.83 6.83c.75.75 1.17 1.77 1.17 2.83z" fill="#cf9e76"/><path d="m37 4.5v6.44c0 2.58-.97 4.95-2.58 6.75s-3.86 3.03-6.42 3.31v7h-6l2-2-.67-10-.01-.13 3.28-.33c3.06-.31 5.4-2.89 5.4-5.97v-5.07c0-.69.28-1.32.73-1.77s1.08-.73 1.77-.73c1.38 0 2.5 1.12 2.5 2.5z" fill="#fcd770"/><path d="m22 28h-6v-6c-1.25 0-2.42.62-3.11 1.66l-6.19 9.29c-.44.66-1.17 1.05-1.96 1.05h-.39c-.65 0-1.24-.26-1.66-.69-.43-.42-.69-1.01-.69-1.66 0-.43.12-.84.33-1.21l4.59-7.64c2.53-4.22 7.09-6.8 12.01-6.8h1.74l-.67 10z" fill="#fcd770"/><path d="m23.33 16 .67 10-2 2-2-2 .67-10h1.33c.42 0 .82-.04 1.21-.12h.01l.1-.01z" fill="#e6e9ed"/><path d="m22 4c3.31 0 6 2.69 6 6 0 2.89-2.05 5.31-4.78 5.88h-.01l-1.21.12c-3.31 0-6-2.69-6-6s2.69-6 6-6z" fill="#f0d0b4"/><path d="m62 13v.67c0 2.17-.64 4.29-1.85 6.1l-5.69 8.54-1.91 2.86c-.34.52-.93.83-1.55.83s-1.21-.31-1.55-.83l-1.92-2.88-5.68-8.52c-1.21-1.81-1.85-3.93-1.85-6.1v-.67c0-3.04 1.23-5.79 3.22-7.78s4.74-3.22 7.78-3.22c6.08 0 11 4.92 11 11z" fill="#ff826e"/><circle cx="51" cy="13" fill="#ffeaa7" r="7"/><path d="m63 13.669v-.669c0-6.617-5.383-12-12-12s-12 5.383-12 12v.669c0 2.378.697 4.68 2.016 6.656l4.889 7.334c-3.06.864-4.905 2.466-4.905 4.341v12.913c-1.007-.661-2.362-1.184-4-1.52v-5.736c0-1.336-.521-2.592-1.465-3.536l-6.535-6.535v-5.727c5.189-1.001 9-5.544 9-10.914v-6.445c0-1.93-1.57-3.5-3.5-3.5s-3.5 1.57-3.5 3.5v5.07c0 2.237-1.459 4.139-3.52 4.773.949-1.195 1.52-2.702 1.52-4.343 0-3.86-3.141-7-7-7s-7 3.14-7 7c0 2.014.86 3.826 2.225 5.104-4.586.531-8.76 3.177-11.161 7.178l-4.586 7.644c-.313.52-.478 1.116-.478 1.725 0 1.847 1.503 3.349 3.35 3.349h.394c1.122 0 2.164-.558 2.786-1.491l6.193-9.29c.315-.474.764-.829 1.277-1.03v10.671l-3.85 13.475c-.003.01-.004.02-.006.029-3.809.748-6.144 2.491-6.144 4.636v6c0 2.851 4.299 5 10 5 4.068 0 7.412-1.098 9-2.76 1.588 1.663 4.932 2.76 9 2.76s7.412-1.098 9-2.76c1.588 1.663 4.932 2.76 9 2.76 5.701 0 10-2.149 10-5v-26c0-1.877-1.845-3.477-4.905-4.34l4.889-7.334c1.319-1.977 2.016-4.279 2.016-6.657zm-26.044 31.764c2.633.611 4.044 1.722 4.044 2.567 0 1.224-3.116 3-8 3s-8-1.776-8-3c0-.845 1.411-1.956 4.044-2.567.219 2 1.898 3.567 3.956 3.567s3.737-1.567 3.956-3.567zm-13.956 3.486c-.909-.598-2.103-1.083-3.531-1.42l4.23-13.394 5.301 5.189v4.099c-3.723.763-6 2.49-6 4.607zm10-39.349v-5.07c0-.827.673-1.5 1.5-1.5s1.5.673 1.5 1.5v6.445c0 4.652-3.486 8.547-8.11 9.062l-.89.098v6.895h-2.586l.614-.614-.642-9.62 2.31-.231c3.594-.359 6.304-3.354 6.304-6.965zm-11.397 7.426h.306c.031 0 .06.004.091.004.033 0 .064-.004.096-.005h.004.003c.099-.001.195-.009.293-.015l.576 8.634-.972.972-.972-.972zm-4.603-6.996c0-2.757 2.243-5 5-5s5 2.243 5 5-2.243 5-5 5-5-2.243-5-5zm-4.941 13.109-6.193 9.29c-.252.376-.671.601-1.123.601h-.393c-.745 0-1.35-.605-1.35-1.349 0-.245.066-.485.192-.694l4.587-7.645c2.336-3.894 6.608-6.312 11.148-6.312l.671-.001-.626 9.387.614.614h-2.603l.017-6h-1c-1.587 0-3.061.789-3.941 2.109zm.941 25.295c0-.176.024-.35.073-.519l3.889-13.611.015-5.274h10.609l6.535 6.535c.567.567.879 1.32.879 2.122v7.343c0 1.103-.897 2-2 2s-2-.897-2-2v-5.706c0-.534-.219-1.055-.602-1.43l-5.99-5.864h-2.141l-5.584 17.683c-.248.788-.971 1.317-1.797 1.317-1.04 0-1.886-.846-1.886-1.886zm-1.968 1.031c.167 1.991 1.821 3.565 3.854 3.565 1.703 0 3.191-1.091 3.704-2.716l.273-.866c2.685.61 4.137 1.738 4.137 2.582 0 1.224-3.116 3-8 3s-8-1.776-8-3c0-.844 1.407-1.953 4.032-2.565zm3.968 11.565c-4.884 0-8-1.776-8-3v-2.936c1.794 1.191 4.651 1.936 8 1.936s6.206-.745 8-1.936v2.936c0 1.224-3.116 3-8 3zm18 0c-4.884 0-8-1.776-8-3v-6-.936c1.794 1.191 4.651 1.936 8 1.936s6.206-.745 8-1.936v6.936c0 1.224-3.116 3-8 3zm18 0c-4.884 0-8-1.776-8-3v-10-12.936c1.794 1.191 4.651 1.936 8 1.936s6.206-.745 8-1.936v22.936c0 1.224-3.116 3-8 3zm8-29c0 1.224-3.116 3-8 3s-8-1.776-8-3c0-.823 1.438-1.953 4.087-2.568l1.527 2.29c.532.8 1.425 1.278 2.386 1.278s1.854-.478 2.387-1.277l1.527-2.29c2.649.614 4.086 1.742 4.086 2.567zm-7.277-1.387c-.322.484-1.123.484-1.445 0l-7.598-11.397c-1.099-1.647-1.68-3.565-1.68-5.547v-.669c0-5.514 4.486-10 10-10s10 4.486 10 10v.669c0 1.981-.581 3.899-1.68 5.547z"/><path d="m51 5c-4.411 0-8 3.589-8 8s3.589 8 8 8 8-3.589 8-8-3.589-8-8-8zm0 14c-3.309 0-6-2.691-6-6s2.691-6 6-6 6 2.691 6 6-2.691 6-6 6z"/><path d="m45 39h2v2h-2z"/><path d="m45 43h2v14h-2z"/></svg>