<svg id="Layer_3" enable-background="new 0 0 64 64" height="512" viewBox="0 0 64 64" width="512" xmlns="http://www.w3.org/2000/svg"><g><path d="m2 2h46v58h-46z" fill="#c7e2fb"/><path d="m2 51.944c.662.037 1.329.056 2 .056 21.539 0 39-19.252 39-43 0-2.385-.184-4.721-.522-7h-40.478z" fill="#ebf7fe"/><path d="m6 36h19v20h-19z" fill="#fff"/><path d="m25 36h19v20h-19z" fill="#ebf7fe"/><path d="m6 28h19v8h-19z" fill="#e47c6f"/><path d="m25 28h19v8h-19z" fill="#78b75b"/><path d="m8 16h8c1.105 0 2 .895 2 2v6h-12v-6c0-1.105.895-2 2-2z" fill="#4472b0"/><path d="m12 6c1.657 0 3 1.343 3 3v2c0 1.657-1.343 3-3 3-1.657 0-3-1.343-3-3v-2c0-1.657 1.343-3 3-3z" fill="#f9d296"/><circle cx="47" cy="51" fill="#4472b0" r="11"/><path d="m54.896 43.352c-1.999-2.064-4.795-3.352-7.896-3.352-6.075 0-11 4.925-11 11 0 3.169 1.348 6.017 3.492 8.024 7.295-2.237 13.084-8.141 15.404-15.672z" fill="#698ec0"/><path d="m22 8h22v16h-22z" fill="#a0a8b2"/><g><path d="m6 25h12c.553 0 1-.448 1-1v-6c0-1.654-1.346-3-3-3h-4-4c-1.654 0-3 1.346-3 3v6c0 .552.447 1 1 1zm1-7c0-.551.448-1 1-1h8c.552 0 1 .449 1 1v5h-1v-4h-2v4h-4v-4h-2v4h-1z"/><path d="m16 11v-2c0-2.206-1.794-4-4-4s-4 1.794-4 4v2c0 2.206 1.794 4 4 4s4-1.794 4-4zm-2 0c0 1.103-.897 2-2 2s-2-.897-2-2v-2c0-1.103.897-2 2-2s2 .897 2 2z"/><path d="m22 25h22c.553 0 1-.448 1-1v-16c0-.552-.447-1-1-1h-22c-.553 0-1 .448-1 1v16c0 .552.447 1 1 1zm1-16h20v14h-20z"/><path d="m25 11h16v2h-16z"/><path d="m27 15h12v2h-12z"/><path d="m25 19h16v2h-16z"/><path d="m9 31h13v2h-13z"/><path d="m28 31h13v2h-13z"/><path d="m49 39.181v-37.181c0-.552-.447-1-1-1h-46c-.553 0-1 .448-1 1v58c0 .553.447 1 1 1h38.381c1.899 1.261 4.174 2 6.619 2 6.617 0 12-5.383 12-12 0-5.934-4.334-10.863-10-11.819zm-46-36.181h44v36c-.683 0-1.348.071-2 .181v-11.181c0-.552-.447-1-1-1h-38c-.553 0-1 .448-1 1v28c0 .553.447 1 1 1h30.623c.417.718.906 1.386 1.457 2h-35.08zm36.042 39.042-.749-.749-6.293 6.293-2.293-2.293-1.414 1.414 3 3c.195.195.451.293.707.293s.512-.098.707-.293l3.159-3.159c-.553 1.379-.866 2.878-.866 4.452 0 1.404.255 2.747.7 4h-9.7v-18h17v2.7c-1.473.523-2.812 1.323-3.958 2.342zm3.958-7.042h-17v-6h17zm-19 0h-17v-6h17zm-17 2h17v18h-17zm41 23.949v-1.949h-2v1.949c-4.717-.471-8.479-4.232-8.949-8.949h1.949v-2h-1.949c.471-4.717 4.232-8.479 8.949-8.949v1.949h2v-1.949c4.717.471 8.479 4.232 8.949 8.949h-1.949v2h1.949c-.47 4.717-4.232 8.479-8.949 8.949z"/><path d="m46 50.586-3.707 3.707 1.414 1.414 4-4c.188-.187.293-.441.293-.707v-4h-2z"/><path d="m53.53 36.389-.816 1.826c5.033 2.254 8.286 7.272 8.286 12.785h2c0-6.3-3.717-12.035-9.47-14.611z"/><path d="m20.707 42.707-1.414-1.414-3.293 3.293-3.293-3.293-1.414 1.414 3.293 3.293-3.293 3.293 1.414 1.414 3.293-3.293 3.293 3.293 1.414-1.414-3.293-3.293z"/></g></g></svg>